HIERARCHY
ROOT Hips
{
 OFFSET 0.000000 0.000000 0.000000
 CHANNELS 6 Xposition Yposition Zposition Yrotation Xrotation Zrotation
 JOINT Chest
 {
  OFFSET 0.000000 12.953391 -0.028419
  CHANNELS 3 Yrotation Xrotation Zrotation
  JOINT Chest2
  {
   OFFSET 0.000000 10.280254 0.051622
   CHANNELS 3 Yrotation Xrotation Zrotation
   JOINT Chest3
   {
    OFFSET 0.000000 9.287180 0.000000
    CHANNELS 3 Yrotation Xrotation Zrotation
    JOINT Chest4
    {
     OFFSET 0.000000 9.287180 0.000000
     CHANNELS 3 Yrotation Xrotation Zrotation
     JOINT Neck
     {
      OFFSET 0.000000 13.296264 0.000000
      CHANNELS 3 Yrotation Xrotation Zrotation
      JOINT Head
      {
       OFFSET 0.000000 8.959264 0.099003
       CHANNELS 3 Yrotation Xrotation Zrotation
       End Site
       {
        OFFSET 0.000000 17.121337 0.039303
       }
      }
     }
     JOINT RightCollar
     {
      OFFSET -3.193511 7.451388 0.000000
      CHANNELS 3 Yrotation Xrotation Zrotation
      JOINT RightShoulder
      {
       OFFSET -15.792092 0.000000 0.000000
       CHANNELS 3 Yrotation Xrotation Zrotation
       JOINT RightElbow
       {
        OFFSET -31.151839 0.000000 0.000000
        CHANNELS 3 Yrotation Xrotation Zrotation
        JOINT RightWrist
        {
         OFFSET -25.536298 0.000000 0.002321
         CHANNELS 3 Yrotation Xrotation Zrotation
         End Site
         {
          OFFSET -19.133213 0.000000 0.000000
         }
        }
       }
      }
     }
     JOINT LeftCollar
     {
      OFFSET 3.193511 7.451388 0.000000
      CHANNELS 3 Yrotation Xrotation Zrotation
      JOINT LeftShoulder
      {
       OFFSET 15.792092 0.000000 0.000000
       CHANNELS 3 Yrotation Xrotation Zrotation
       JOINT LeftElbow
       {
        OFFSET 31.151839 0.000000 0.000000
        CHANNELS 3 Yrotation Xrotation Zrotation
        JOINT LeftWrist
        {
         OFFSET 25.536298 0.000000 0.002321
         CHANNELS 3 Yrotation Xrotation Zrotation
         End Site
         {
          OFFSET 19.133213 0.000000 0.000000
         }
        }
       }
      }
     }
    }
   }
  }
 }
 JOINT RightHip
 {
  OFFSET -10.745749 0.139252 0.014209
  CHANNELS 3 Yrotation Xrotation Zrotation
  JOINT RightKnee
  {
   OFFSET 0.000000 -43.743899 -0.006071
   CHANNELS 3 Yrotation Xrotation Zrotation
   JOINT RightAnkle
   {
    OFFSET 0.000000 -43.214199 0.089931
    CHANNELS 3 Yrotation Xrotation Zrotation
    JOINT RightToe
    {
     OFFSET 0.000000 -9.699830 19.151588
     CHANNELS 3 Yrotation Xrotation Zrotation
     End Site
     {
      OFFSET 0.000000 -1.292898 4.893873
     }
    }
   }
  }
 }
 JOINT LeftHip
 {
  OFFSET 10.745749 0.139252 0.014209
  CHANNELS 3 Yrotation Xrotation Zrotation
  JOINT LeftKnee
  {
   OFFSET 0.000000 -43.743899 -0.006071
   CHANNELS 3 Yrotation Xrotation Zrotation
   JOINT LeftAnkle
   {
    OFFSET 0.000000 -43.214199 0.089931
    CHANNELS 3 Yrotation Xrotation Zrotation
    JOINT LeftToe
    {
     OFFSET 0.000000 -9.699830 19.151588
     CHANNELS 3 Yrotation Xrotation Zrotation
     End Site
     {
      OFFSET 0.000000 -1.292898 4.893873
     }
    }
   }
  }
 }
}
MOTION
Frames: 15
Frame Time: 0.016667
138.080400 102.375913 -25.404682 -9.850704 -0.800409 6.670091 0.528314 4.699678 -0.262036 0.237262 2.088314 -0.121697 0.237265 2.088232 -0.121687 0.178346 1.566072 -0.092060 -1.738813 20.730659 0.240907 -3.230943 2.337090 0.953145 11.813985 -33.146523 -21.697861 52.985847 -28.701222 0.556832 57.001328 -28.809311 -20.627323 13.077534 -8.231568 -16.186809 -8.855424 -36.710297 19.815439 -68.653402 -23.675436 -0.347938 -44.927254 -16.143821 3.068449 -6.720814 -19.978102 25.142784 -5.271127 -12.863148 4.231546 5.100021 48.146277 0.716197 11.102699 15.845138 5.433873 -2.267637 -11.390458 -13.562167 12.761411 -15.955219 0.804582 -11.257029 10.809645 -2.512938 -17.631877 21.398988 -22.971859 0.053609 0.498256 -0.033804
138.216805 102.316921 -27.475175 -7.094053 -0.709824 6.999770 0.453666 4.703848 -0.329151 0.204793 2.090277 -0.150764 0.204793 2.090277 -0.150764 0.154094 1.567657 -0.113761 -1.970115 20.586219 0.171946 -3.634207 2.072841 0.900752 13.976883 -33.688254 -21.202376 51.060854 -26.229164 0.139118 57.009019 -29.202467 -20.876155 12.851035 -8.279276 -16.148697 -8.152414 -35.958195 19.039167 -69.773375 -23.598076 1.222549 -45.049392 -17.916289 4.208932 -6.860783 -20.404684 25.097279 -4.399621 -11.399813 4.280121 4.341859 44.583335 1.372804 8.589521 16.635515 1.905266 -2.235446 -16.841215 -18.037952 13.410214 -17.067693 0.256309 -11.950929 10.564886 -2.995574 -16.560436 20.872240 -24.115132 0.000000 0.000000 0.000000
138.384096 101.910998 -29.611650 -4.701612 -0.673787 7.426373 0.489731 4.779620 -0.465806 0.222154 2.123868 -0.211906 0.222085 2.123924 -0.211911 0.167236 1.592905 -0.159688 -2.181466 20.453255 0.164868 -4.018851 1.830477 0.955042 15.663141 -33.844553 -20.342298 49.689612 -24.198797 -0.970852 57.249003 -29.846054 -21.321840 12.786408 -8.524189 -16.228940 -9.144726 -35.225119 18.579813 -69.702161 -22.971652 2.753938 -45.339495 -19.811403 5.588570 -7.036125 -20.721825 25.134569 -4.631829 -9.527452 4.468557 3.133872 40.674655 1.167511 4.594878 13.325623 -2.709988 -0.463088 -20.842756 -15.644247 12.808327 -18.577169 -0.337645 -10.014358 12.673166 -2.667231 -14.029437 17.671224 -21.828319 0.000000 -0.000000 -0.000000
138.574156 101.230875 -31.772866 -2.587866 -0.653382 7.876443 0.595352 4.912737 -0.616768 0.270786 2.182686 -0.280182 0.270725 2.182713 -0.280186 0.203980 1.636930 -0.211080 -2.373347 20.301462 0.179975 -4.375896 1.554048 1.045152 16.938624 -33.848875 -19.369324 48.729519 -22.600873 -2.376776 57.632403 -30.590508 -21.880604 12.853189 -8.911409 -16.378430 -10.887022 -34.564943 18.345082 -69.056123 -22.262415 4.222095 -45.775259 -21.789168 7.127539 -7.248685 -20.995991 25.240051 -5.519648 -7.616212 4.734645 1.964892 36.698368 0.704533 0.250482 7.331244 -7.559351 0.801955 -24.016766 -8.912193 11.550939 -20.364143 -0.959093 -6.686919 16.340124 -1.523094 -10.756693 12.436106 -18.111215 0.000000 -0.000000 -0.000000
138.747628 100.423658 -33.805429 -0.794295 -0.537823 8.153559 0.742779 5.031757 -0.674680 0.337118 2.235255 -0.307621 0.337118 2.235255 -0.307621 0.253932 1.676272 -0.231920 -2.504935 20.116497 0.138271 -4.607011 1.214464 1.015218 17.283820 -33.891964 -19.092238 48.368821 -22.335581 -2.980627 57.932056 -30.976655 -22.147850 13.062591 -9.265933 -16.492085 -11.600388 -34.533239 18.577692 -68.866695 -22.581922 4.798202 -46.330715 -23.245546 8.436621 -7.535153 -21.148937 25.442793 -6.640671 -6.432770 5.251245 1.927735 33.673277 0.318214 -2.915964 1.464683 -10.808300 0.554282 -24.891827 -2.905169 10.421516 -22.157566 -1.472173 -4.022028 20.396647 -0.001739 -7.665402 8.031879 -14.553080 0.000000 0.000000 -0.000000
138.903005 99.437071 -35.627615 0.590332 -0.169607 8.132334 0.953870 5.075242 -0.554639 0.429662 2.254548 -0.256701 0.429711 2.254571 -0.256708 0.323222 1.690767 -0.194100 -2.559880 19.862742 -0.037503 -4.658216 0.739707 0.720126 16.193435 -34.223551 -20.240414 48.855994 -24.304150 -1.854852 58.059523 -30.742011 -21.859729 13.509166 -9.532040 -16.473924 -10.100687 -35.778356 19.565599 -69.803265 -24.885353 3.624446 -47.100200 -23.955050 9.448266 -8.004042 -21.171035 25.848543 -8.048996 -6.385505 6.202935 3.986113 32.098768 0.015379 -5.072601 -3.239445 -11.838909 0.126773 -22.284579 -0.609861 9.692092 -24.041742 -1.927512 -3.056638 24.718505 1.695828 -4.271658 5.926653 -10.688032 -0.000000 0.000000 -0.000000
139.041794 98.323389 -37.321149 1.653061 0.313902 7.946659 1.210847 5.092769 -0.348341 0.541509 2.262570 -0.167970 0.541556 2.262596 -0.167981 0.406768 1.696820 -0.127985 -2.556715 19.581098 -0.274610 -4.584158 0.207471 0.295947 14.123972 -34.563987 -22.022766 49.890328 -27.662412 0.008976 58.060148 -30.175854 -21.232116 14.089804 -9.767564 -16.401305 -7.475183 -37.749538 20.806160 -71.143693 -28.145309 1.512280 -47.964612 -24.126814 10.246052 -8.554538 -21.071583 26.358626 -9.688259 -7.033053 7.385699 7.055484 31.548320 -0.304956 -6.852219 -7.481368 -11.697990 -0.004755 -17.618570 0.040196 9.053853 -25.925144 -2.251478 -2.725404 29.486524 3.502913 -0.514794 4.798223 -6.426081 -0.000000 0.000000 -0.000000
139.129159 97.386543 -38.977813 2.619203 0.583401 7.785563 1.426030 5.179344 -0.211277 0.635485 2.301275 -0.109732 0.635485 2.301275 -0.109732 0.476963 1.725844 -0.084682 -2.506101 19.369561 -0.423691 -4.449235 -0.192599 0.014916 11.983256 -34.224683 -22.988916 51.065582 -30.633280 0.781861 57.893607 -29.648627 -20.575229 14.525540 -9.964380 -16.438800 -5.426783 -39.135703 21.541361 -71.996504 -30.453365 0.148523 -48.549993 -23.811762 10.657273 -8.910235 -20.798194 26.700950 -10.956061 -7.897038 8.372186 9.015587 31.620991 -0.670065 -8.023212 -10.681933 -11.554953 -0.046090 -13.780981 0.381397 8.404326 -27.252076 -2.149189 -2.144054 34.048630 4.905395 2.369539 3.797541 -2.992139 -0.000000 0.000000 -0.000000
139.145437 96.722552 -40.644003 3.463594 0.461457 7.724217 1.586364 5.433515 -0.214437 0.706657 2.414175 -0.113765 0.706602 2.414183 -0.113744 0.530288 1.810513 -0.088070 -2.388520 19.236791 -0.407051 -4.241568 -0.441134 0.012246 9.946578 -32.414155 -22.343364 52.709880 -32.578709 -0.911178 57.541412 -29.298977 -20.052987 14.725570 -10.143194 -16.760163 -4.798188 -39.199718 21.566139 -72.028112 -30.882641 0.532906 -48.689943 -22.776450 10.609960 -8.920205 -20.186378 26.725633 -11.478248 -9.024027 8.928293 8.675700 32.527457 -1.175296 -8.094565 -12.522040 -11.738933 -0.084822 -11.897938 0.781973 7.585560 -27.834640 -1.305547 -1.000858 38.415568 5.610513 3.507052 2.683187 -0.698534 0.000000 0.000000 0.000000
139.110292 96.235395 -42.273322 4.213131 0.122774 7.674034 1.703536 5.762819 -0.278823 0.759500 2.560288 -0.144914 0.759435 2.560326 -0.144890 0.570048 1.920091 -0.111814 -2.219843 19.164887 -0.296651 -3.968455 -0.574648 0.162537 7.983920 -29.872563 -20.995840 54.715762 -33.968228 -3.781162 57.034949 -28.978201 -19.525876 14.793301 -10.284838 -17.205614 -4.858342 -38.603937 21.306695 -71.635169 -30.425052 1.718243 -48.578978 -21.237359 10.226075 -8.741708 -19.393075 26.593389 -11.628653 -10.392243 9.249010 7.181324 33.990554 -1.780637 -7.496288 -13.346275 -11.844022 -0.088370 -10.845859 0.911359 6.743667 -27.862313 -0.028141 0.211038 42.614126 5.895955 3.714530 1.868917 1.056009 0.000000 0.000000 0.000000
139.047878 95.940946 -43.818367 5.174526 -0.236389 7.574712 1.724773 5.979279 -0.333745 0.769797 2.656207 -0.170373 0.769797 2.656207 -0.170373 0.577985 1.991944 -0.131105 -2.061131 19.209487 -0.160839 -3.720938 -0.491326 0.359814 6.549819 -28.175284 -19.968214 56.072650 -34.776683 -5.543249 56.416332 -28.614301 -18.863720 14.740688 -10.317384 -17.449895 -5.034589 -38.080213 21.145496 -71.210958 -30.007851 2.517624 -48.376956 -19.922295 9.596432 -8.551787 -18.852461 26.491715 -11.906323 -11.457981 9.525938 5.953321 34.852591 -2.283840 -7.187897 -13.572966 -11.865060 -0.085814 -10.103369 0.970748 6.254181 -27.364411 1.033472 1.216735 45.949897 6.240672 4.074046 1.475728 2.336886 0.000000 -0.000000 0.000000
138.958660 95.860210 -45.231874 6.498134 -0.556758 7.381275 1.604847 5.981166 -0.362921 0.717044 2.656949 -0.181808 0.717100 2.656902 -0.181829 0.538555 1.992438 -0.139484 -1.927891 19.445805 0.005153 -3.526820 -0.050915 0.615595 5.745074 -28.216655 -19.619995 56.104464 -34.967636 -4.821150 55.595178 -28.155637 -17.884950 14.499897 -10.181879 -17.304601 -5.110153 -37.856754 21.208066 -70.954247 -29.921034 2.495739 -48.070359 -19.093264 8.556088 -8.389735 -18.796372 26.472578 -12.588922 -11.955191 9.880233 5.693235 34.654447 -2.508156 -7.593012 -13.299398 -11.797090 -0.085752 -9.510960 1.030191 6.273721 -26.265662 1.684093 2.000539 48.092582 6.823694 4.869357 1.525622 2.984357 0.000000 0.000000 0.000000
138.842174 95.972181 -46.561106 8.034821 -0.891788 7.134042 1.387505 5.870869 -0.391463 0.620858 2.608059 -0.191345 0.620895 2.608037 -0.191363 0.466431 1.955823 -0.146162 -1.797839 19.797495 0.207563 -3.346078 0.605106 0.935275 5.353694 -29.124655 -19.537874 55.344570 -34.707538 -2.863765 54.668575 -27.641934 -16.783252 14.128080 -9.934032 -16.964758 -5.292305 -37.711016 21.353316 -70.697091 -29.827046 2.095493 -47.676128 -18.464910 7.242470 -8.212951 -18.997731 26.462907 -13.394336 -12.148247 10.200406 5.739549 33.867049 -2.576180 -8.284015 -12.425925 -11.654175 -0.082400 -9.228021 1.020034 6.643358 -24.659311 2.175435 2.597842 49.346663 7.398299 5.724178 2.027432 3.176854 0.000000 0.000000 0.000000
138.721183 96.229716 -47.900444 9.641541 -1.215471 6.904300 1.153879 5.764325 -0.411048 0.517279 2.560896 -0.196799 0.517279 2.560896 -0.196799 0.388719 1.920507 -0.149743 -1.679195 20.096989 0.377075 -3.175474 1.163583 1.199625 5.200664 -29.856430 -19.465219 54.550013 -34.429743 -1.269902 53.953632 -27.150100 -15.976993 13.822252 -9.670363 -16.674779 -5.623473 -37.710879 21.528672 -70.338090 -29.650210 1.441452 -47.359837 -17.969003 6.156234 -8.063671 -19.203797 26.464029 -13.988978 -12.289909 10.342011 5.549537 32.743945 -2.596229 -8.946008 -11.076290 -11.459075 -0.074589 -9.210849 0.925940 7.259947 -22.834247 2.533415 2.907066 49.938229 7.833597 6.751562 3.022921 3.373220 0.000000 0.000000 0.000000
138.594679 96.661793 -49.257879 11.329065 -1.555457 6.696348 0.917893 5.700048 -0.408290 0.412457 2.532488 -0.192513 0.412459 2.532456 -0.192511 0.310093 1.899194 -0.146068 -1.589988 20.293880 0.484226 -3.041763 1.529933 1.362668 5.305120 -29.974644 -19.261156 53.875402 -34.283845 -0.654119 53.521129 -26.586472 -15.558735 13.661154 -9.375246 -16.516460 -6.166843 -37.891387 21.716030 -69.845585 -29.341793 0.491933 -47.158060 -17.607437 5.471100 -7.960190 -19.347308 26.498364 -14.172828 -12.339800 10.235537 4.820295 31.177020 -2.608906 -9.504275 -9.212110 -11.240659 -0.063105 -9.459502 0.761151 8.385579 -20.741787 2.740757 2.699634 49.736206 8.090838 8.157625 4.550295 3.925358 0.086298 0.425480 0.824853
